<svg width="24" height="24" viewBox="0 0 24 24" fill="none" xmlns="http://www.w3.org/2000/svg">
<g clip-path="url(#clip0_29_1517)">
<path d="M16.9746 18.7487V21.282H-0.525391V18.7487C-0.525391 18.7487 -0.525391 13.6821 8.22461 13.6821C16.9746 13.6821 16.9746 18.7487 16.9746 18.7487ZM12.5996 6.71543C12.5996 5.8386 12.343 4.98146 11.8623 4.25241C11.3816 3.52335 10.6983 2.95512 9.89885 2.61958C9.09942 2.28403 8.21976 2.19623 7.37109 2.3673C6.52242 2.53836 5.74287 2.96059 5.13102 3.5806C4.51916 4.20061 4.10248 4.99055 3.93367 5.85053C3.76486 6.71051 3.8515 7.6019 4.18264 8.41198C4.51377 9.22207 5.07452 9.91446 5.79399 10.4016C6.51345 10.8887 7.35932 11.1487 8.22461 11.1487C9.38493 11.1487 10.4977 10.6817 11.3182 9.85026C12.1387 9.01885 12.5996 7.89122 12.5996 6.71543ZM16.8996 13.6821C17.668 14.2847 18.2968 15.0506 18.7417 15.926C19.1866 16.8013 19.4368 17.7648 19.4746 18.7487V21.282H24.4746V18.7487C24.4746 18.7487 24.4746 14.1507 16.8996 13.6821ZM15.7246 2.28211C14.8642 2.27726 14.0228 2.53792 13.3121 3.02944C14.0714 4.1045 14.4797 5.39339 14.4797 6.71543C14.4797 8.03746 14.0714 9.32635 13.3121 10.4014C14.0228 10.8929 14.8642 11.1536 15.7246 11.1487C16.8849 11.1487 17.9977 10.6817 18.8182 9.85026C19.6387 9.01885 20.0996 7.89122 20.0996 6.71543C20.0996 5.53964 19.6387 4.41201 18.8182 3.5806C17.9977 2.74919 16.8849 2.28211 15.7246 2.28211Z" fill="#9A9A99"/>
</g>
<defs>
<clipPath id="clip0_29_1517">
<rect width="24" height="24" fill="white"/>
</clipPath>
</defs>
</svg>
