<svg width="48" height="48" viewBox="0 0 48 48" fill="none" xmlns="http://www.w3.org/2000/svg">
<path d="M38 40C38 42.22 36.22 44 34 44C31.78 44 30 42.2 30 40C30 37.78 31.78 36 34 36C36.22 36 38 37.8 38 40ZM14 36C11.78 36 10 37.78 10 40C10 42.2 11.78 44 14 44C16.22 44 18 42.22 18 40C18 37.78 16.22 36 14 36ZM14.4 29.26L14.34 29.5C14.34 29.78 14.56 30 14.84 30H38V34H14C11.78 34 10 32.2 10 30C10 29.3 10.18 28.64 10.48 28.08L13.2 23.18L6 8H2V4H8.54L10.42 8H40C41.1 8 42 8.9 42 10C42 10.34 41.9 10.68 41.76 11L34.6 23.94C33.92 25.16 32.6 26 31.1 26H16.2L14.4 29.26ZM17 22H20V18H15.12L17 22ZM22 18V22H28V18H22ZM28 16V12H22V16H28ZM34.22 18H30V22H32L34.22 18ZM37.56 12H30V16H35.34L37.56 12ZM12.28 12L14.16 16H20V12H12.28Z" fill="black"/>
</svg>
