<svg width="23" height="23" viewBox="0 0 23 23" fill="none" xmlns="http://www.w3.org/2000/svg">
<g clip-path="url(#clip0_29_1510)">
<path d="M19.5152 8.94444C19.1455 8.94444 18.7909 8.80982 18.5295 8.57019C18.2681 8.33056 18.1212 8.00555 18.1212 7.66667C18.1212 7.32778 18.2681 7.00277 18.5295 6.76314C18.7909 6.52351 19.1455 6.38889 19.5152 6.38889C19.8848 6.38889 20.2394 6.52351 20.5008 6.76314C20.7622 7.00277 20.9091 7.32778 20.9091 7.66667C20.9091 8.00555 20.7622 8.33056 20.5008 8.57019C20.2394 8.80982 19.8848 8.94444 19.5152 8.94444ZM11.1515 8.94444H2.78788V2.55556H11.1515M21.9824 5.405L21.9964 5.39222L16.8109 0.638889L15.3333 1.99333L18.2745 4.68944C16.9642 5.11111 16.0303 6.29944 16.0303 7.66667C16.0303 8.08617 16.1204 8.50156 16.2956 8.88913C16.4707 9.2767 16.7274 9.62885 17.051 9.92548C17.7045 10.5246 18.5909 10.8611 19.5152 10.8611C20.017 10.8611 20.477 10.7589 20.9091 10.5928V19.8056C20.9091 20.1444 20.7622 20.4695 20.5008 20.7091C20.2394 20.9487 19.8848 21.0833 19.5152 21.0833C19.1455 21.0833 18.7909 20.9487 18.5295 20.7091C18.2681 20.4695 18.1212 20.1444 18.1212 19.8056V14.0556C18.1212 12.6372 16.8667 11.5 15.3333 11.5H13.9394V2.55556C13.9394 1.13722 12.6848 0 11.1515 0H2.78788C1.24061 0 0 1.13722 0 2.55556V23H13.9394V13.4167H16.0303V19.8056C16.0303 20.6528 16.3975 21.4653 17.051 22.0644C17.7045 22.6634 18.5909 23 19.5152 23C19.9728 23 20.4259 22.9174 20.8487 22.7568C21.2715 22.5963 21.6557 22.361 21.9793 22.0644C22.3029 21.7677 22.5596 21.4156 22.7347 21.028C22.9099 20.6404 23 20.2251 23 19.8056V7.66667C23 6.785 22.6097 5.98 21.9824 5.405Z" fill="#9A9A99"/>
</g>
<defs>
<clipPath id="clip0_29_1510">
<rect width="23" height="23" fill="white"/>
</clipPath>
</defs>
</svg>
