<svg width="36" height="36" viewBox="0 0 36 36" fill="none" xmlns="http://www.w3.org/2000/svg">
<path d="M31.6822 13.7062L31.0364 12.0199L34.3732 10.7641C32.7227 6.96076 29.7806 3.91094 26.0849 2.04517L24.6497 5.23851L22.9992 4.48502L24.4344 1.25581C22.4251 0.466443 20.2364 0 17.9401 0C16.0384 0 14.2086 0.394682 12.4863 0.897005L13.7062 4.19798L12.0199 4.84383L10.7641 1.50697C6.96076 3.15746 3.91094 6.09963 2.04517 9.79529L5.23851 11.2305L4.48502 12.881L1.25581 11.4458C0.466443 13.4551 0 15.6438 0 17.9401C0 19.8417 0.394682 21.6716 0.897005 23.3939L4.19798 22.174L4.84383 23.8603L1.50697 25.1161C3.15746 28.9194 6.09963 31.9693 9.79529 33.835L11.2305 30.6417L12.881 31.3952L11.4458 34.6244C13.4551 35.4138 15.6438 35.8802 17.9401 35.8802C19.8417 35.8802 21.6716 35.4855 23.3939 34.9832L22.174 31.6822L23.8603 31.0364L25.1161 34.3732C28.9194 32.7227 31.9693 29.7806 33.835 26.0849L30.6417 24.6497L31.3952 22.9992L34.6244 24.4344C35.4138 22.4251 35.8802 20.2364 35.8802 17.9401C35.8802 16.0384 35.4855 14.2086 34.9832 12.4863L31.6822 13.7062ZM22.0663 27.8789C16.5767 30.1394 10.2617 27.556 8.00128 22.0663C5.74083 16.5767 8.32421 10.2617 13.8139 8.00128C19.3035 5.74083 25.6185 8.32421 27.8789 13.8139C30.1752 19.3035 27.556 25.6185 22.0663 27.8789Z" fill="black"/>
</svg>
