<svg width="24" height="24" viewBox="0 0 24 24" fill="none" xmlns="http://www.w3.org/2000/svg">
<g clip-path="url(#clip0_29_1513)">
<path d="M21.3446 15.8912C22.4846 13.2872 22.4846 10.2992 21.3446 7.70719L18.0566 9.19519C18.7766 10.8512 18.7766 12.7352 18.0686 14.4032L21.3446 15.8912ZM16.1006 2.45119C13.4966 1.31119 10.5086 1.31119 7.90458 2.45119L9.39258 5.72719C11.0606 5.01919 12.9446 5.01919 14.6126 5.73919L16.1006 2.45119ZM2.64858 7.69519C1.50858 10.3112 1.50858 13.2872 2.64858 15.9032L5.93658 14.4032C5.21658 12.7472 5.21658 10.8512 5.93658 9.18319L2.64858 7.69519ZM7.90458 21.1472C10.5086 22.2872 13.4966 22.2872 16.1006 21.1352L14.6126 17.8592C12.9566 18.5792 11.0606 18.5792 9.40458 17.8712L7.90458 21.1472ZM11.9966 -0.200806C13.5724 -0.200806 15.1329 0.109584 16.5888 0.71264C18.0447 1.3157 19.3676 2.19961 20.4819 3.31391C21.5962 4.42822 22.4801 5.75109 23.0831 7.20699C23.6862 8.6629 23.9966 10.2233 23.9966 11.7992C23.9966 14.9818 22.7323 18.034 20.4819 20.2845C18.2314 22.5349 15.1792 23.7992 11.9966 23.7992C10.4207 23.7992 8.86029 23.4888 7.40438 22.8857C5.94847 22.2827 4.6256 21.3988 3.5113 20.2845C1.26086 18.034 -0.00341797 14.9818 -0.00341797 11.7992C-0.00341797 8.6166 1.26086 5.56435 3.5113 3.31391C5.76174 1.06348 8.81398 -0.200806 11.9966 -0.200806ZM11.9966 6.99919C10.7235 6.99919 9.50264 7.50491 8.60247 8.40508C7.70229 9.30526 7.19658 10.5262 7.19658 11.7992C7.19658 13.0722 7.70229 14.2931 8.60247 15.1933C9.50264 16.0935 10.7235 16.5992 11.9966 16.5992C13.2696 16.5992 14.4905 16.0935 15.3907 15.1933C16.2909 14.2931 16.7966 13.0722 16.7966 11.7992C16.7966 10.5262 16.2909 9.30526 15.3907 8.40508C14.4905 7.50491 13.2696 6.99919 11.9966 6.99919Z" fill="#9A9A99"/>
</g>
<defs>
<clipPath id="clip0_29_1513">
<rect width="24" height="24" fill="white"/>
</clipPath>
</defs>
</svg>
